<svg height="512pt" viewBox="0 -26 512 512" width="512pt" xmlns="http://www.w3.org/2000/svg"><path d="m321.339844 63.003906-9.382813-9.378906c-2.933593-2.929688-7.679687-2.929688-10.605469 0-2.929687 2.929688-2.929687 7.679688 0 10.605469l9.382813 9.378906c1.464844 1.464844 3.382813 2.199219 5.300781 2.199219 1.921875 0 3.839844-.734375 5.304688-2.199219 2.929687-2.929687 2.929687-7.675781 0-10.605469zm0 0"/><path d="m326.210938 127.785156c1.464843 1.46875 3.382812 2.199219 5.304687 2.199219 1.917969 0 3.835937-.730469 5.300781-2.195313 2.929688-2.929687 2.929688-7.679687 0-10.605468l-9.378906-9.382813c-2.929688-2.933593-7.679688-2.929687-10.609375-.003906-2.929687 2.929687-2.929687 7.679687 0 10.605469zm0 0"/><path d="m250.492188 117.75c-2.929688 2.929688-2.929688 7.675781 0 10.605469l9.378906 9.382812c1.46875 1.464844 3.386718 2.195313 5.304687 2.195313 1.921875 0 3.839844-.730469 5.304688-2.195313 2.929687-2.929687 2.929687-7.679687 0-10.605469l-9.378907-9.382812c-2.929687-2.929688-7.679687-2.929688-10.609374 0zm0 0"/><path d="m393.652344 193.019531c1.464844 1.460938 3.382812 2.195313 5.300781 2.195313 1.921875 0 3.839844-.734375 5.304687-2.195313 2.929688-2.929687 2.929688-7.679687 0-10.609375l-9.378906-9.378906c-2.929687-2.929688-7.679687-2.929688-10.609375 0-2.925781 2.929688-2.925781 7.675781 0 10.605469zm0 0"/><path d="m232.355469 180.199219c-2.929688-2.925781-7.679688-2.929688-10.609375 0-2.929688 2.929687-2.929688 7.679687 0 10.605469l9.382812 9.382812c1.464844 1.464844 3.382813 2.195312 5.300782 2.195312 1.921874 0 3.839843-.730468 5.304687-2.195312 2.929687-2.929688 2.929687-7.675781 0-10.605469zm0 0"/><path d="m373.214844 232.734375c-2.929688 2.925781-2.929688 7.675781 0 10.605469l9.382812 9.382812c1.464844 1.464844 3.382813 2.195313 5.300782 2.195313 1.921874 0 3.839843-.730469 5.304687-2.195313 2.929687-2.929687 2.929687-7.675781 0-10.605468l-9.378906-9.382813c-2.929688-2.929687-7.679688-2.929687-10.609375 0zm0 0"/><path d="m504.5 445.5625h-87.273438v-34.496094h57.019532c3.878906 0 7.238281-1.722656 9.21875-4.722656 1.976562-3 2.234375-6.765625.710937-10.324219l-16.988281-39.683593c-1.628906-3.808594-6.039062-5.574219-9.84375-3.941407-3.808594 1.628907-5.574219 6.039063-3.945312 9.84375l14.480468 33.828125h-50.652344v-28.441406c0-4.144531-3.359374-7.5-7.5-7.5-4.144531 0-7.5 3.355469-7.5 7.5v28.441406h-46.453124l56.054687-130.957031 27.019531 63.125c1.628906 3.808594 6.039063 5.574219 9.847656 3.941406 3.808594-1.628906 5.570313-6.035156 3.941407-9.84375l-16.539063-38.640625c1.003906-.929687 1.996094-1.875 2.960938-2.851562 18.367187-18.589844 28.480468-43.222656 28.480468-69.355469 0-22.449219-7.742187-44.421875-21.804687-61.867187-12.265625-15.21875-28.894531-26.515626-47.402344-32.324219 1.175781-6.125 1.765625-12.347657 1.765625-18.582031 0-4.140626-3.355468-7.5-7.5-7.5-4.144531 0-7.5 3.359374-7.5 7.5 0 7.402343-.984375 14.792968-2.925781 21.957031-.535156 1.96875-.246094 4.066406.800781 5.816406 1.050782 1.75 2.761719 2.996094 4.75 3.453125 18.132813 4.1875 34.589844 14.515625 46.335938 29.09375 12.089844 15 18.480468 33.140625 18.480468 52.453125 0 21.5-8.089843 41.78125-22.792968 57.367187l-9.054688-21.160156c-1.726562-4.035156-5.042968-6.445312-8.863281-6.445312s-7.136719 2.410156-8.863281 6.445312l-19.789063 46.238282c-4.332031.75-8.746093 1.179687-13.222656 1.238281-2.96875.039062-5.632813 1.824219-6.796875 4.554687-9.589844 22.464844-30.398438 37.722656-54.269531 40.386719 0-22.0625 0-38.519531 0-38.519531v-47.746094l35.945312-35.949219c2.929688-2.929687 2.929688-7.679687 0-10.609375-2.929687-2.925781-7.679687-2.925781-10.605469.003906l-25.339843 25.339844v-37.175781c0-4.144531-3.359375-7.5-7.5-7.5-4.144531 0-7.5 3.355469-7.5 7.5v88.03125l-24.238281-24.234375c-2.929688-2.925781-7.675782-2.925781-10.605469 0-2.929688 2.929688-2.929688 7.679688 0 10.609375l34.84375 34.839844v35.410156c-11.25-1.257813-21.820313-5.3125-30.855469-11.601563l-34.589844-80.816406c-1.726562-4.035156-5.042968-6.445312-8.863281-6.445312s-7.136719 2.410156-8.863281 6.445312l-10.117188 23.644532-27.496094-45.296876h12.722657c4.066406 0 7.550781-1.917968 9.316406-5.125 1.769531-3.207031 1.523437-7.171874-.648437-10.609374l-29.367188-46.453126c1.136719-1.636718 2.324219-3.25 3.59375-4.820312 11.746094-14.574219 28.199219-24.90625 46.332031-29.089844 1.988281-.460937 3.703125-1.707031 4.75-3.457031 1.046875-1.746094 1.335938-3.847656.804688-5.8125-1.945313-7.175781-2.929688-14.5625-2.929688-21.957031 0-46.160156 37.554688-83.714844 83.714844-83.714844 34.191406 0 64.632813 20.457031 77.546875 52.121094 1.5625 3.835937 5.945312 5.679687 9.777344 4.109375 3.835937-1.5625 5.675781-5.941407 4.109375-9.773438-15.226563-37.335937-51.117188-61.457031-91.4375-61.457031-54.429688 0-98.714844 44.28125-98.714844 98.714844 0 6.226562.59375 12.449218 1.769531 18.578125-18.507812 5.8125-35.136718 17.105469-47.402344 32.324219-.171874.214843-.332031.4375-.5.652343l-19.699218-31.160156c-2.105469-3.328125-5.390625-5.234375-9.015625-5.234375-3.621094 0-6.90625 1.90625-9.011719 5.234375l-57.648438 91.195313c-2.171874 3.4375-2.414062 7.402343-.648437 10.609374 1.769531 3.207032 5.25 5.125 9.316406 5.125h12.722657l-37.664063 62.039063c-2.09375 3.453125-2.277344 7.410156-.488281 10.589844 1.792968 3.179687 5.269531 5.074219 9.308594 5.074219h14.160156l-39.371094 66.578124c-2.046875 3.460938-2.191406 7.414063-.386719 10.574219 1.800781 3.160157 5.277344 5.046875 9.296875 5.046875h36.589844c4.144531 0 7.5-3.359375 7.5-7.5 0-4.144531-3.355469-7.5-7.5-7.5h-28.441406l39.371094-66.578125c2.046874-3.457031 2.191406-7.410156.386718-10.570312-1.800781-3.160157-5.277344-5.046875-9.296875-5.046875h-13.988281l37.664062-62.042969c2.09375-3.449219 2.277344-7.40625.488282-10.585937-1.789063-3.179688-5.269532-5.078126-9.304688-5.078126h-12.433594l49.378907-78.113281 49.386719 78.113281h-12.4375c-4.039063 0-7.515626 1.898438-9.304688 5.078126-1.789062 3.179687-1.605469 7.140624.488281 10.585937l37.382813 61.585937-.195313.457032h-13.511719c-4.019531 0-7.496093 1.886718-9.296874 5.046875-1.804688 3.160156-1.660157 7.113281.386718 10.574219l9.128906 15.433593-21.890624 51.140625h-47.960938c-4.144531 0-7.5 3.355469-7.5 7.5 0 4.140625 3.355469 7.5 7.5 7.5h8.746094v59.621094h-111.246094c-4.144531 0-7.5 3.355469-7.5 7.5 0 4.140625 3.355469 7.5 7.5 7.5h497c4.144531 0 7.5-3.359375 7.5-7.5s-3.355469-7.5-7.5-7.5zm-129.570312-135.570312c.472656-.027344.941406-.070313 1.414062-.105469l-36.867188 86.132812c-1.523437 3.566407-1.265624 7.328125.714844 10.328125 1.980469 3 5.335938 4.71875 9.214844 4.71875h52.820312v34.496094h-93.339843c0-16.371094 0-56.59375 0-90.386719 28.308593-2.578125 53.316406-19.609375 66.042969-45.183593zm-81.042969 45.191406v90.378906h-68.910157v-34.496094h57.019532c3.878906 0 7.238281-1.722656 9.21875-4.722656 1.976562-3 2.234375-6.765625.710937-10.324219l-19.605469-45.804687c6.847657 2.589844 14.089844 4.289062 21.566407 4.96875zm-74.308594-90.074219 56.050781 130.957031h-50.652344v-28.441406c0-4.144531-3.359374-7.5-7.5-7.5-4.144531 0-7.5 3.355469-7.5 7.5v28.441406h-46.453124zm-85.832031 120.832031h17.792968l-4.3125 10.078125c-1.523437 3.5625-1.265624 7.328125.714844 10.328125 1.980469 2.996094 5.335938 4.71875 9.214844 4.71875h52.820312v34.496094h-76.230468zm0 0"/></svg>