<?xml version="1.0" standalone="no"?>
<!DOCTYPE svg PUBLIC "-//W3C//DTD SVG 20010904//EN"
 "http://www.w3.org/TR/2001/REC-SVG-20010904/DTD/svg10.dtd">
<svg version="1.0" xmlns="http://www.w3.org/2000/svg"
 width="700.000000pt" height="700.000000pt" viewBox="0 0 700.000000 700.000000"
 preserveAspectRatio="xMidYMid meet">
<metadata>
Created by potrace 1.11, written by Peter Selinger 2001-2013
</metadata>
<g transform="translate(0.000000,700.000000) scale(0.100000,-0.100000)"
fill="#000000" stroke="none">
<path d="M3989 6996 c-2 -2 -26 -7 -54 -10 -113 -12 -304 -70 -415 -126 -103
-52 -240 -150 -326 -232 -212 -203 -338 -432 -400 -728 -19 -91 -25 -321 -11
-440 l8 -65 -53 -19 c-220 -78 -371 -184 -587 -413 -12 -12 -18 -7 -45 36
-262 426 -278 445 -363 442 -54 -1 -90 -28 -137 -99 -105 -161 -765 -1210
-781 -1241 -31 -61 -5 -141 55 -173 14 -7 75 -15 135 -18 l111 -5 -193 -315
c-106 -173 -196 -321 -200 -329 -3 -8 -35 -61 -70 -118 -73 -119 -85 -167 -56
-223 29 -56 69 -70 201 -70 69 0 112 -4 112 -10 0 -6 -11 -27 -24 -48 -13 -20
-82 -136 -153 -257 -72 -121 -185 -312 -252 -425 -106 -179 -121 -210 -121
-249 0 -54 31 -105 75 -123 44 -19 576 -19 614 0 50 24 68 87 40 139 -25 46
-50 51 -264 53 -110 0 -201 3 -203 5 -2 2 40 77 94 167 53 90 105 177 114 193
10 17 84 143 165 280 179 303 184 313 175 366 -16 84 -61 108 -213 110 -114 2
-116 2 -105 23 6 12 61 102 121 201 391 640 410 674 403 717 -5 38 -32 80 -63
99 -29 18 -52 22 -136 24 -82 1 -101 5 -99 16 7 28 657 1048 664 1041 7 -7
668 -1051 668 -1055 0 -2 -43 -2 -96 -2 -153 2 -209 -34 -209 -134 1 -55 4
-62 174 -341 302 -494 349 -575 345 -582 -3 -4 -52 -7 -109 -7 -149 0 -199
-29 -211 -123 -5 -38 0 -52 41 -123 26 -44 59 -102 75 -130 l28 -50 -148 -345
-149 -345 -349 -5 -350 -5 -26 -24 c-33 -31 -41 -70 -22 -114 19 -47 47 -60
128 -62 37 -1 71 -4 74 -8 6 -5 10 -756 5 -799 -1 -4 -352 -9 -782 -10 l-781
-3 -30 -34 c-25 -28 -29 -39 -25 -72 5 -47 28 -75 71 -88 19 -6 1302 -9 3448
-8 l3418 2 26 26 c15 16 28 41 31 66 5 35 1 45 -25 74 l-30 34 -619 5 -618 5
0 233 0 232 402 0 c447 0 458 1 501 63 41 61 34 91 -100 404 -68 158 -132 298
-144 312 -30 36 -101 38 -137 5 -52 -48 -48 -69 62 -327 56 -130 101 -240 101
-244 0 -6 -624 -10 -675 -4 -6 1 -10 76 -10 205 -1 224 -5 244 -58 269 -41 21
-87 11 -119 -24 l-28 -29 0 -213 0 -212 -309 0 c-170 0 -312 3 -315 6 -5 5
628 1503 694 1644 5 11 21 47 35 80 l26 60 23 -55 c154 -370 352 -820 369
-837 25 -28 73 -38 110 -24 34 13 66 65 62 100 -2 15 -53 144 -114 286 -61
142 -111 263 -111 270 0 6 22 35 49 63 379 396 479 1000 247 1496 -117 250
-290 444 -526 589 -77 47 -212 110 -264 123 -27 7 -28 8 -22 53 16 108 18 221
6 251 -26 64 -107 81 -160 33 -26 -24 -31 -37 -35 -93 -10 -133 -17 -186 -31
-244 -28 -110 -6 -139 142 -185 426 -130 737 -494 798 -931 44 -316 -43 -632
-245 -884 -24 -30 -47 -55 -50 -56 -3 0 -32 62 -64 138 -71 167 -89 198 -125
217 -56 29 -131 12 -162 -37 -8 -13 -76 -168 -152 -345 -99 -232 -143 -323
-155 -324 -9 0 -24 -2 -33 -4 -10 -2 -52 -6 -94 -9 -90 -6 -103 -15 -146 -101
-140 -276 -398 -467 -689 -509 l-35 -5 -1 587 -1 587 259 261 c189 189 259
267 260 285 4 81 -32 122 -107 122 -33 0 -49 -14 -217 -181 -100 -100 -185
-182 -188 -182 -3 0 -5 118 -6 263 0 284 -2 296 -53 322 -36 19 -63 19 -98 1
-56 -29 -55 -14 -55 -676 0 -336 -1 -610 -3 -608 -1 2 -81 81 -177 176 -96 94
-180 172 -188 173 -8 0 -21 2 -30 4 -29 5 -78 -23 -94 -55 -33 -64 -25 -76
244 -346 l248 -249 0 -242 c0 -134 -3 -243 -8 -243 -20 0 -178 40 -214 55 -56
22 -159 75 -182 94 -12 9 -120 249 -253 561 -128 300 -241 560 -252 578 -47
76 -150 83 -205 12 -7 -8 -45 -90 -84 -183 -40 -92 -75 -167 -78 -167 -3 0
-36 51 -73 113 -37 61 -119 198 -183 302 l-115 190 112 5 c62 3 123 11 135 18
52 29 78 100 58 161 -6 19 -206 342 -370 596 -17 28 -35 56 -39 63 -8 13 24
62 84 128 138 151 333 273 524 328 137 40 160 76 130 204 -69 291 -5 621 169
882 61 92 220 251 307 308 109 72 286 150 377 167 15 3 42 8 58 11 119 23 316
23 415 -1 3 0 23 -4 45 -9 120 -24 319 -113 416 -187 165 -125 285 -270 365
-444 19 -40 46 -83 60 -94 49 -39 122 -22 149 34 21 46 20 52 -25 149 -128
280 -357 511 -634 641 -195 92 -339 126 -557 131 -86 2 -158 2 -160 0z m-634
-4446 c180 -421 341 -796 357 -835 17 -38 36 -82 43 -97 8 -16 10 -28 7 -29
-4 -1 -157 -2 -340 -3 -214 0 -336 3 -340 9 -4 6 -7 100 -7 210 -1 153 -4 205
-15 222 -27 42 -87 60 -129 38 -55 -28 -56 -32 -61 -264 l-5 -216 -303 0
c-167 0 -308 3 -313 6 -7 4 76 211 171 424 10 22 135 315 278 650 143 336 270
632 282 659 l22 49 13 -29 c8 -16 161 -373 340 -794z m1785 206 c0 -3 -25 -63
-55 -131 -7 -16 -32 -75 -55 -130 -23 -55 -50 -118 -60 -140 -155 -351 -334
-786 -338 -820 -3 -33 1 -53 18 -84 40 -70 48 -71 475 -71 l375 0 0 -235 0
-235 -638 0 -639 0 2 613 c1 336 2 615 3 620 1 4 15 7 31 7 17 0 60 7 98 15
312 70 573 259 729 527 33 56 54 82 54 64z m-1250 -591 c36 -8 79 -15 95 -17
l30 -3 1 -617 2 -618 -469 0 c-258 0 -469 3 -470 8 -1 4 -2 109 -3 235 l-1
227 400 1 c220 0 409 2 420 4 35 7 65 28 86 62 37 59 31 97 -41 258 -38 87
-210 493 -210 498 0 3 21 -2 48 -10 26 -8 76 -21 112 -28z m-1823 -444 c1 -1
-14 -40 -34 -87 -39 -94 -41 -145 -6 -193 44 -60 52 -61 466 -61 l377 0 0
-235 0 -235 -520 0 -520 0 0 404 c0 269 3 405 10 408 9 3 221 2 227 -1z"/>
<path d="M4160 6293 c-47 -17 -81 -84 -66 -131 8 -25 174 -192 193 -193 7 -1
22 -1 33 -1 42 0 50 3 75 29 18 21 25 39 25 69 0 38 -7 49 -67 114 -36 39 -79
80 -93 90 -29 21 -76 31 -100 23z"/>
<path d="M4364 5545 c-42 -17 -57 -40 -58 -89 -1 -38 4 -50 44 -92 82 -89 138
-136 167 -139 76 -8 131 56 112 130 -9 33 -166 194 -190 196 -8 0 -21 2 -30 4
-8 1 -29 -3 -45 -10z"/>
<path d="M3453 5410 c-29 -12 -60 -63 -57 -92 1 -13 3 -29 3 -35 1 -7 42 -53
91 -103 86 -86 93 -90 134 -90 52 0 92 34 102 86 8 42 -5 63 -89 147 -96 97
-125 111 -184 87z"/>
<path d="M5310 4663 c-58 -17 -93 -66 -84 -119 7 -42 168 -202 210 -210 37 -7
88 16 104 47 33 60 16 101 -82 197 -70 68 -115 94 -148 85z"/>
<path d="M3072 4559 c-43 -13 -74 -62 -68 -108 4 -31 35 -70 136 -169 60 -58
116 -64 164 -15 25 24 29 33 29 68 0 8 -1 22 -2 31 -1 20 -147 171 -183 190
-30 16 -31 16 -76 3z"/>
<path d="M5128 3834 c-45 -24 -68 -86 -47 -127 16 -31 149 -166 179 -181 40
-21 97 -7 123 29 43 60 27 102 -74 202 -94 92 -128 106 -181 77z"/>
</g>
</svg>
